<svg version="1.1" xmlns="http://www.w3.org/2000/svg" xmlns:xlink="http://www.w3.org/1999/xlink" width="95.90034" height="70.60289" viewBox="0,0,95.90034,70.60289"><g transform="translate(-191.84532,-144.61609)"><g data-paper-data="{&quot;isPaintingLayer&quot;:true}" fill-rule="nonzero" stroke-width="0" stroke-linecap="butt" stroke-linejoin="miter" stroke-miterlimit="10" stroke-dasharray="" stroke-dashoffset="0" style="mix-blend-mode: normal"><path d="M191.85011,204.5972c0.00597,-15.13244 0.0134,-41.92508 -0.00474,-49.67524c-0.01926,-8.23037 5.20241,-10.31612 10.57893,-10.30583c38.74924,0.07417 61.28776,0.06206 73.36361,0.03894c8.68449,-0.01662 11.95775,4.30471 11.95775,8.42708c0,8.05207 0,36.79312 0,52.20471c0,5.9642 -4.70347,9.93212 -9.42905,9.93212c-11.18558,0 -57.02469,0 -76.81222,0c-5.52814,0 -9.65678,-4.29024 -9.65429,-10.62178z" fill="#019f43" stroke="#000000"/><path d="M191.85011,204.5972c0.00263,-6.66246 0.00643,-24.14782 0.00643,-24.14782l95.88913,-0.91991c0,0 0,18.83368 0,25.75739c0,5.9642 -4.70347,9.93212 -9.42904,9.93212c-11.18558,0 -57.02469,0 -76.81222,0c-5.52813,0 -9.65679,-4.29024 -9.65429,-10.62178z" fill="#008dd6" stroke="#000000"/><path d="M191.84532,185.63443v-11.26886h95.90034v11.26886z" fill="#edf0eb" stroke="none"/></g></g></svg>