<svg version="1.1" xmlns="http://www.w3.org/2000/svg" xmlns:xlink="http://www.w3.org/1999/xlink" width="95.90034" height="70.60289" viewBox="0,0,95.90034,70.60289"><g transform="translate(-191.84532,-144.61609)"><g data-paper-data="{&quot;isPaintingLayer&quot;:true}" fill-rule="nonzero" stroke-linecap="butt" stroke-linejoin="miter" stroke-miterlimit="10" stroke-dasharray="" stroke-dashoffset="0" style="mix-blend-mode: normal"><path d="M191.85011,204.5972c0.00597,-15.13244 0.0134,-41.92508 -0.00474,-49.67524c-0.01926,-8.23037 5.20241,-10.31612 10.57893,-10.30583c38.74924,0.07417 61.28776,0.06206 73.36361,0.03894c8.68449,-0.01662 11.95775,4.30471 11.95775,8.42708c0,8.05207 0,36.79312 0,52.20471c0,5.9642 -4.70347,9.93212 -9.42905,9.93212c-11.18558,0 -57.02469,0 -76.81222,0c-5.52814,0 -9.65678,-4.29024 -9.65429,-10.62178z" fill="#0500a3" stroke="#000000" stroke-width="0"/><path d="M204.67551,187.3743c-2.5,0 -2.5,-2.5 -2.5,-2.5v-1.99792c0.00367,-7.71658 2.01568,-15.30579 3.09139,-22.97138c-1.71681,0.03611 -3.43216,0.10748 -5.14471,0.24023c0,0 -2.49264,0.19174 -2.68438,-2.30089c-0.19174,-2.49264 2.30089,-2.68438 2.30089,-2.68438c5.29727,-0.40455 10.61411,-0.2571 15.9254,-0.2571h2.74714c0,0 2.5,0 2.5,2.5c0,2.5 -2.5,2.5 -2.5,2.5h-2.74714c-1.7816,0 -3.56451,-0.0187 -5.34725,-0.02695c-1.02515,7.66968 -3.14521,15.29468 -3.14133,23.00048v1.99792c0,0 0,2.5 -2.5,2.5z" fill="#00ff31" stroke="none" stroke-width="0.5"/><path d="M234.14489,187.87379c-2.5,0 -2.5,-2.5 -2.5,-2.5l0.01241,-0.99798c0.53477,-5.34417 0.25455,-9.87062 -0.48701,-15.13306c-0.17088,-1.21264 0.44135,-5.8733 -0.13764,-7.16902c-0.11303,-0.25295 0.03185,0.5946 -0.12734,0.82136c-1.68474,2.39993 -1.86123,2.79592 -2.90509,5.60964c-1.73108,4.6661 -4.25857,8.72448 -4.59893,13.81418c0,0 -0.19174,2.49264 -2.68438,2.30089c-2.49264,-0.19174 -2.30089,-2.68438 -2.30089,-2.68438c0.47704,-5.6193 3.00187,-9.98786 4.89121,-15.15573c0.66182,-1.81027 0.9326,-3.85342 2.09881,-5.38804c1.09663,-1.44306 4.70949,-4.92383 6.8563,-4.16436c4.27017,1.51065 3.48781,5.0442 3.63175,8.07813c0.1573,3.31513 1.11645,6.4065 1.24773,9.71571c0.13154,3.31595 -0.18049,6.56167 -0.50932,9.85219l0.01241,0.50046c0,0 0,2.5 -2.5,2.5z" fill="#00ff31" stroke="none" stroke-width="0.5"/><path d="M257.12361,160.14999c0,2.5 -2.5,2.5 -2.5,2.5h-1.74818c-3.04327,0 -6.00119,-0.0138 -9.03278,0.24111c0,0 -2.49137,0.20762 -2.69898,-2.28375c-0.20762,-2.49137 2.28375,-2.69898 2.28375,-2.69898c3.17013,-0.26196 6.26703,-0.25838 9.44801,-0.25838h1.74818c0,0 2.5,0 2.5,2.5z" fill="#00ff31" stroke="none" stroke-width="0.5"/><path d="M263.015,183.24733c1.62698,1.89814 -0.27116,3.52512 -0.27116,3.52512l-3.55328,2.09394c-5.58195,-0.39911 -10.66671,-1.7971 -16.11768,-3.05455c0,0 -2.43598,-0.56215 -1.87383,-2.99813c0.56215,-2.43598 2.99813,-1.87383 2.99813,-1.87383c0.2046,0.04723 0.40863,0.09471 0.61214,0.14237c0.42051,-0.83688 1.28757,-1.23101 1.28757,-1.23101l1.67971,-0.32625c-0.62763,-2.98497 -0.32555,-5.51069 0.13049,-8.51682c0,0 0.38014,-2.47093 2.85107,-2.09079c2.47093,0.38014 2.09079,2.85108 2.09079,2.85108c-0.54529,3.48971 -0.56304,6.93383 -0.86847,10.46346l-0.66011,0.37572c2.6917,0.58761 5.3912,1.06915 8.22644,1.27146l-0.05692,-0.90294c0,0 1.89814,-1.62698 3.52512,0.27116z" fill="#00ff31" stroke="none" stroke-width="0.5"/><path d="M282.3474,165.39455c0,2.5 -2.5,2.5 -2.5,2.5l-0.74003,-0.04855c-4.74491,-0.95176 -9.57179,-1.41866 -14.21355,-2.80403c0,0 -2.39456,-0.71838 -1.6762,-3.11294c0.71837,-2.39456 3.11293,-1.6762 3.11293,-1.6762c4.47479,1.35013 9.17183,1.77602 13.75739,2.69026l-0.24055,-0.04855c0,0 2.5,0 2.5,2.5z" fill="#00ff31" stroke="none" stroke-width="0.5"/><path d="M282.07254,181.98123c-0.35355,2.47487 -2.82843,2.12132 -2.82843,2.12132l-2.1852,-0.35291c-4.87551,-1.65669 -10.01029,-2.11275 -14.8726,-4.04636c0,0 -2.32119,-0.92848 -1.39272,-3.24967c0.92848,-2.32119 3.24967,-1.39272 3.24967,-1.39272c4.763,1.91779 9.77739,2.36472 14.59678,3.94533l1.31117,0.14658c0,0 2.47487,0.35355 2.12132,2.82843z" fill="#00ff31" stroke="none" stroke-width="0.5"/></g></g></svg>