<svg version="1.1" xmlns="http://www.w3.org/2000/svg" xmlns:xlink="http://www.w3.org/1999/xlink" width="95.90034" height="70.60289" viewBox="0,0,95.90034,70.60289"><g transform="translate(-191.84531,-144.61609)"><g data-paper-data="{&quot;isPaintingLayer&quot;:true}" fill-rule="nonzero" stroke-linecap="butt" stroke-linejoin="miter" stroke-miterlimit="10" stroke-dasharray="" stroke-dashoffset="0" style="mix-blend-mode: normal"><path d="M191.85011,204.5972c0.00597,-15.13244 0.0134,-41.92508 -0.00474,-49.67524c-0.01926,-8.23037 5.20241,-10.31612 10.57893,-10.30583c38.74924,0.07417 61.28776,0.06206 73.36361,0.03894c8.68449,-0.01662 11.95775,4.30471 11.95775,8.42708c0,8.05207 0,36.79312 0,52.20471c0,5.9642 -4.70347,9.93212 -9.42905,9.93212c-11.18558,0 -57.02469,0 -76.81222,0c-5.52814,0 -9.65678,-4.29024 -9.65429,-10.62178z" fill="#0500a3" stroke="#000000" stroke-width="0"/><path d="M219.67952,176.86302c1.76777,1.76777 0,3.53553 0,3.53553l-3.02566,2.43187c-0.28476,0.05695 -5.09222,1.02222 -5.23876,1.03534c-1.70097,0.15239 -6.31583,0.13559 -7.42425,-1.40234c-1.00109,-1.389 -0.69086,-3.40853 -0.50998,-5.11111c0.12288,-1.15672 0.94246,-2.12716 1.39287,-3.19965c1.21509,-2.89328 2.34178,-5.79501 4.31594,-8.2877c0.3027,-0.38221 0.62384,-0.80148 0.96166,-1.21705c-1.99177,0 -3.98355,0 -5.97532,0c0,0 -2.5,0 -2.5,-2.5c0,-2.5 2.5,-2.5 2.5,-2.5c3.49637,0 6.99273,0 10.4891,0h3.24663c1.38071,0 2.5,1.11929 2.5,2.5c0,0.81137 -0.38653,1.53247 -0.98549,1.9892l-2.22733,1.73236l-0.03118,-0.04009c-0.05608,0.06126 -0.11297,0.12185 -0.17074,0.18173c-1.11668,1.15734 -2.87763,1.62725 -3.84918,2.90885c-1.67542,2.21009 -2.57572,4.69022 -3.67576,7.19621c-0.3412,0.77729 -0.71998,1.53786 -1.10453,2.29464c-0.15393,0.30293 -0.69045,0.59475 -0.50998,0.88266c0.16025,0.25567 0.51123,-0.36401 0.81039,-0.40338c2.37482,-0.31256 4.61352,-0.48422 7.00532,-0.96258l0.47071,-1.0645c0,0 1.76777,-1.76777 3.53553,0z" fill="#00ff31" stroke="none" stroke-width="0.5"/><path d="M245.73004,180.27892c-0.02124,-0.5165 -0.0977,-1.03518 -0.09784,-1.55219c-0.00019,-0.70173 0.38937,-1.47546 0.07691,-2.10379c-0.25342,-0.50961 -0.99623,-0.5533 -1.51483,-0.78777c-2.59683,-1.17407 -5.43822,-0.70509 -8.00269,-1.73808c-0.01268,-0.00511 -0.02536,-0.01023 -0.03803,-0.01538l-0.00156,0.00779l-3.70069,-0.74014c-1.16847,-0.20987 -2.05512,-1.23166 -2.05512,-2.46053c0,-1.1246 0.74256,-2.07576 1.76412,-2.38994l2.9422,-0.98073l0.0154,0.0462l0.11697,-0.08629c1.17305,-0.25177 2.35788,-0.45382 3.51915,-0.75532c1.54075,-0.40002 3.10268,-0.71728 4.66672,-1.01345c0.28196,-0.05339 -0.57883,-0.0309 -0.85321,-0.11498c-0.77196,-0.23656 -1.5073,-0.58031 -2.27098,-0.8424c-2.83664,-0.9735 -5.6899,-0.60349 -8.64906,-0.60349c0,0 -2.5,0 -2.5,-2.5c0,-2.5 2.5,-2.5 2.5,-2.5c4.05857,0 10.7892,-0.80147 14.05401,2.54996c1.29084,1.32509 2.90651,3.04878 2.64316,4.87983c-0.26606,1.84986 -2.03295,3.05971 -4.17618,3.88893c2.38042,0.61955 4.72801,1.65603 5.88365,3.67823c1.61884,2.83274 1.0058,9.42815 -1.54803,11.63198c-2.22915,1.92365 -7.20367,2.2126 -9.9884,1.84357c-1.40596,-0.18632 -3.20254,0.08482 -4.14064,-0.97887c-2.0837,-2.36267 -0.9685,-6.82552 1.29276,-8.5321c2.53082,-1.91002 4.8695,-0.77422 7.37631,-0.14291l2.35868,1.89285c0,0 0.15496,0.15496 0.32725,0.41901zM241.52221,182.72148c-0.96679,-0.35265 -2.0674,-1.09537 -2.90647,-0.57298c-0.33662,0.20957 -1.04465,1.16293 -0.70516,0.95804c0.66535,-0.40156 2.129,-0.35869 3.61163,-0.38506z" fill="#00ff31" stroke="none" stroke-width="0.5"/><path d="M279.69968,178.9579c1.92055,1.60046 0.32009,3.52101 0.32009,3.52101l-1.49684,1.75622c-2.52346,2.26268 -6.28652,6.377 -10.33351,4.34753c-3.13131,-1.57028 -2.2409,-4.23463 -2.7766,-6.69286c-0.10222,-0.46909 -0.30553,-1.09383 -0.4685,-1.71502c-0.43424,0.44996 -0.92443,0.85997 -1.37503,1.28502c-0.84284,0.79505 -1.58854,1.36268 -2.33838,1.8303l-2.43035,2.18732c-0.44381,0.40276 -1.03301,0.64818 -1.67954,0.64818c-1.38071,0 -2.5,-1.11929 -2.5,-2.5c0,-0.09542 0.00535,-0.18959 0.01575,-0.28222l0.23749,-2.37494c0.02674,-2.02324 0.6723,-3.99222 1.02774,-5.98473c0.61506,-3.44791 0.33451,-7.59073 -0.01987,-11.08859c0,0 -0.24876,-2.48759 2.23883,-2.73635c2.48759,-0.24876 2.73635,2.23883 2.73635,2.23883c0.38842,3.93094 0.64197,8.4917 -0.01987,12.38702c-0.09678,0.56958 -0.22974,1.13596 -0.3662,1.70192c1.47008,-1.57391 4.08,-5.26697 6.38758,-4.48812c0.89652,0.30259 3.13821,6.43875 3.44808,7.86765c0.23341,1.07635 -0.77021,2.81516 0.22028,3.29676c0.82331,0.40032 1.58842,-0.92731 2.29233,-1.51262c0.8148,-0.67752 1.5724,-1.42103 2.35859,-2.13155l1.00056,-1.24067c0,0 1.60046,-1.92055 3.52101,-0.32009z" fill="#00ff31" stroke="none" stroke-width="0.5"/></g></g></svg>